<svg width="70" height="36" fill="none" xmlns="http://www.w3.org/2000/svg"><rect width="70" height="36" rx="18" fill="#DCE6FF"/><circle cx="18" cy="18" r="15" fill="#fff"/><path d="M11.682 22a.328.328 0 0 1-.22-.078.328.328 0 0 1-.079-.221v-.546c0-.095.026-.169.078-.221a.3.3 0 0 1 .221-.091h.455c.278 0 .516-.065.715-.195.2-.139.386-.351.56-.637.181-.286.368-.659.558-1.118l2.535-5.772a.29.29 0 0 1 .13-.169.386.386 0 0 1 .195-.052h.702c.07 0 .13.026.182.078a.25.25 0 0 1 .078.182.43.43 0 0 1-.013.104.14.14 0 0 1-.026.078l-2.652 6.006c-.208.46-.403.858-.585 1.196-.182.33-.377.602-.585.819-.208.217-.45.377-.728.481a2.857 2.857 0 0 1-1 .156h-.52Zm2.21-2.21-3.549-6.474a.324.324 0 0 1-.039-.143c0-.07.026-.13.078-.182a.273.273 0 0 1 .195-.091h.728c.078 0 .143.017.195.052a.383.383 0 0 1 .13.169l2.951 5.369-.689 1.3Zm7.773 2.34c-.53 0-.997-.06-1.404-.182a3.237 3.237 0 0 1-1.027-.494 2.673 2.673 0 0 1-.664-.741 2.165 2.165 0 0 1-.273-.897c-.008-.078.014-.139.066-.182a.35.35 0 0 1 .207-.065h.65c.079 0 .148.017.209.052.069.035.12.108.155.221.105.347.33.633.677.858.346.217.81.325 1.39.325.408 0 .776-.06 1.105-.182.33-.13.594-.312.793-.546.2-.243.3-.533.3-.871 0-.511-.187-.906-.56-1.183-.364-.286-.862-.429-1.495-.429h-.936a.281.281 0 0 1-.207-.078.328.328 0 0 1-.078-.221v-.455c0-.095.026-.169.078-.221a.26.26 0 0 1 .207-.091h.884c.538 0 .971-.117 1.3-.351.338-.234.507-.607.507-1.118a1.12 1.12 0 0 0-.26-.741 1.585 1.585 0 0 0-.663-.481 2.313 2.313 0 0 0-.936-.182c-.528 0-.97.095-1.326.286-.355.19-.576.498-.663.923a.4.4 0 0 1-.117.208.344.344 0 0 1-.194.052h-.703a.31.31 0 0 1-.207-.078.227.227 0 0 1-.066-.195c.026-.33.117-.633.273-.91.156-.286.369-.533.637-.741a3.06 3.06 0 0 1 1.014-.481 5.027 5.027 0 0 1 1.365-.169c.703 0 1.283.117 1.742.351.46.234.806.537 1.04.91.235.364.352.758.352 1.183 0 .26-.035.516-.104.767-.061.251-.17.481-.326.689-.147.208-.35.39-.61.546.311.147.563.338.753.572.2.225.347.481.442.767.104.277.156.576.156.897 0 .529-.142.992-.428 1.391-.278.399-.676.715-1.197.949-.52.225-1.14.338-1.858.338Z" fill="#000"/><path d="M42.43 23a.328.328 0 0 1-.221-.078.328.328 0 0 1-.078-.221v-8.489c0-.095.026-.169.078-.221a.3.3 0 0 1 .221-.091h3.302c.98 0 1.75.238 2.314.715.563.477.845 1.166.845 2.067 0 .901-.282 1.59-.845 2.067-.555.468-1.326.702-2.314.702h-2.301v3.25a.3.3 0 0 1-.091.221.328.328 0 0 1-.221.078h-.689Zm3.237-4.641c.633 0 1.11-.143 1.43-.429.33-.286.494-.702.494-1.248s-.16-.962-.481-1.248c-.32-.295-.802-.442-1.443-.442h-2.249v3.367h2.249Zm11.07-4.459c.07 0 .13.026.183.078a.25.25 0 0 1 .078.182c0 .07-.013.13-.04.182l-2.651 6.006c-.303.685-.577 1.209-.82 1.573a2.452 2.452 0 0 1-.831.806c-.32.182-.737.273-1.248.273h-.52a.328.328 0 0 1-.221-.078.328.328 0 0 1-.078-.221v-.546c0-.087.026-.16.078-.221a.3.3 0 0 1 .22-.091h.456c.346 0 .632-.104.858-.312.234-.217.472-.576.715-1.079l-3.367-6.136a.324.324 0 0 1-.04-.143c0-.07.027-.13.079-.182a.273.273 0 0 1 .195-.091h.74c.13 0 .235.074.313.221l2.704 4.927 2.17-4.927a.291.291 0 0 1 .13-.156.33.33 0 0 1 .196-.065h.702Z" fill="#A6A6A6"/></svg>